<svg xmlns="http://www.w3.org/2000/svg" width="179" height="17" fill="none"><path fill="#fff" fill-rule="evenodd" d="M27.972.087c4.83.24 9.2.948 12.672 1.988 4.972 1.484 8.099 3.644 8.099 6.044 0 2.03-2.247 3.89-5.952 5.317-1.501.579-3.25 1.084-5.182 1.502a51.916 51.916 0 0 1-5.07.837 70.022 70.022 0 0 1-8.168.468c-2.868 0-5.612-.166-8.166-.468a55.878 55.878 0 0 1-5.072-.837c-1.932-.418-3.68-.923-5.182-1.502C2.246 12.015 0 10.15 0 8.12c0-2.4 3.126-4.56 8.1-6.044C11.57 1.035 15.94.327 20.77.087A70.697 70.697 0 0 1 24.23.001h.283c1.175 0 2.326.031 3.459.086ZM6.628 10.784a3.502 3.502 0 0 0 3.49-.363l1.335-.979 9.017-6.524s.018-.018.055-.043l.061-.043c.376-.258 1.52-1.034 2.364-1.372.003 0 .004.001.006.003.001.001.003.003.006.003a2.12 2.12 0 0 1 .21-.086h.005c.216-.08.437-.136.665-.172a56.494 56.494 0 0 0-1.255.018c-5.638.135-10.647.93-14.155 2.111C5.2 4.427 3.242 5.854 3.242 7.411c0 1.243 1.244 2.4 3.385 3.373Zm17.743 2.837c3.028 0 5.915-.19 8.524-.53 2.413-.436 1.206-2.086.597-2.756a5.75 5.75 0 0 0-.27-.278l-.013-.012-.006-.006c-.406-.406-.819-.818-1.243-1.225a70.301 70.301 0 0 0-5.502-4.806l-.006-.006c0-.004-.003-.006-.006-.008a.036.036 0 0 1-.007-.005.14.14 0 0 1-.022-.015l-.02-.015c-.007-.007-.013-.011-.02-.016a.163.163 0 0 1-.018-.015.266.266 0 0 0-.043-.037c-.326-.246-1.17-.806-1.932-.806-.764-.007-1.607.56-1.939.806-.068.05-.117.086-.135.104l-.006.007h-.007c-.43.338-.867.689-1.298 1.046a74.575 74.575 0 0 0-4.204 3.76 58.75 58.75 0 0 0-1.243 1.225l-.006.006-.015.014c-.04.039-.143.14-.274.281l-.019.019c-.627.695-1.772 2.308.61 2.739 2.603.338 5.49.529 8.523.529Zm14.248-3.2a3.504 3.504 0 0 0 3.49.363c2.141-.973 3.384-2.13 3.366-3.373 0-1.557-1.957-2.985-5.188-4.074-3.508-1.188-8.518-1.976-14.155-2.111-.08-.006-.154-.006-.228-.006a55.789 55.789 0 0 0-1.022-.012 3.291 3.291 0 0 1 .683.178c.068.025.136.055.203.086.003 0 .005-.001.006-.003.002-.001.004-.003.007-.003.849.339 1.994 1.114 2.363 1.372l.062.044.024.018c.019.018.03.025.03.025l9.017 6.523 1.342.973ZM64.86 8.119a3.904 3.904 0 0 1 3.908-3.902h12.468l1.564-2.597H68.246a6.51 6.51 0 0 0-6.388 7.798 6.49 6.49 0 0 0 6.382 5.194H81.23l1.564-2.597H68.763a3.903 3.903 0 0 1-3.68-2.598 3.942 3.942 0 0 1-.222-1.298ZM88.82 6.82h14.814v-5.2h3.126v12.997h-3.126v-5.2H88.82v5.2H85.7V1.62h3.12v5.2Zm61.968-5.2a3.905 3.905 0 0 1 3.909 3.902 3.883 3.883 0 0 1-3.059 3.797l3.059 5.293h-3.385l-3.004-5.2h-11.545v5.2h-3.127V6.814h17.152c.721 0 1.305-.584 1.305-1.298 0-.714-.584-1.299-1.305-1.299H135.193L133.63 1.62h17.158Zm16.088 5.699 7.416-5.7h4.419l-10.149 7.798v5.2h-3.538v-5.2L154.875 1.62h4.579l7.422 5.699ZM112.797 5.49a1.301 1.301 0 0 1 1.299-1.268h15.078l1.563-2.597h-17.158a3.908 3.908 0 0 0-3.908 3.902v9.09h19.503l1.563-2.597h-17.94V9.418h13.251l1.563-2.598h-14.814V5.491Z"/></svg>