<!-- Generated by IcoMoon.io -->
<svg version="1.1" xmlns="http://www.w3.org/2000/svg" width="1216" height="1024" viewBox="0 0 1216 1024">
<g id="icomoon-ignore">
</g>
<path fill="#fff" d="M81.184 470.157c310.774-135.402 518.001-224.662 621.69-267.793 296.058-123.136 357.574-144.525 397.664-145.231 8.819-0.156 28.538 2.026 41.312 12.393 10.784 8.753 13.747 20.573 15.174 28.868 1.414 8.296 3.187 27.201 1.779 41.968-16.045 168.564-85.459 577.629-120.774 766.429-14.944 79.885-44.371 106.675-72.858 109.293-61.901 5.702-108.915-40.909-168.877-80.211-93.824-61.504-146.829-99.795-237.902-159.808-105.254-69.363-37.024-107.488 22.958-169.782 15.699-16.307 288.467-264.407 293.741-286.913 0.666-2.813 1.274-13.308-4.96-18.848s-15.43-3.647-22.067-2.136c-9.414 2.136-159.302 101.203-449.663 297.211-42.547 29.21-81.081 43.444-115.61 42.703-38.066-0.822-111.281-21.522-165.711-39.218-66.76-21.701-119.824-33.174-115.205-70.031 2.408-19.195 28.845-38.83 79.31-58.893z"></path>
</svg>
