<svg width="32" height="32" viewBox="0 0 32 32" fill="none" xmlns="http://www.w3.org/2000/svg">
<rect width="32" height="32" rx="16" fill="#CA0100"/>
<path d="M22.0091 13.9194C20.7273 13.4584 19.1136 13.1446 17.3295 13.0382C16.9114 13.0136 16.4864 13 16.0523 13H15.9477C15.5136 13 15.0886 13.0136 14.6705 13.0382C12.8864 13.1446 11.2727 13.4584 9.99091 13.9194C8.15454 14.577 7 15.5346 7 16.5986C7 17.499 7.82955 18.3257 9.19773 18.9559C9.75227 19.2124 10.3977 19.4361 11.1114 19.6216C11.6932 19.7717 12.3205 19.8972 12.9841 19.9927C13.9273 20.1263 14.9409 20.2 16 20.2C17.0568 20.2 18.0727 20.1263 19.0159 19.9927C19.6795 19.8999 20.3068 19.7744 20.8886 19.6216C21.6023 19.4361 22.2477 19.2124 22.8023 18.9559C24.1705 18.3229 25 17.499 25 16.5986C25 15.5346 23.8455 14.577 22.0091 13.9194ZM10.7364 17.619C10.3614 17.9437 9.87045 18.0092 9.44773 17.78C8.65682 17.3489 8.19773 16.836 8.19773 16.2849C8.19773 15.5946 8.92045 14.9617 10.1136 14.4787C11.4091 13.9549 13.2591 13.603 15.3409 13.5429C15.3682 13.5429 15.3955 13.5402 15.425 13.5402C15.55 13.5375 15.6773 13.5347 15.8045 13.5347C15.7205 13.5511 15.6386 13.5757 15.5591 13.6111H15.5568C15.5295 13.6221 15.5045 13.6357 15.4795 13.6493C15.4773 13.6493 15.4773 13.6466 15.475 13.6466C15.1636 13.7967 14.7409 14.1404 14.6023 14.255L14.5795 14.2741C14.5659 14.285 14.5591 14.2932 14.5591 14.2932L11.2295 17.1852L10.7364 17.619ZM19.1477 18.8031C18.1841 18.9532 17.1182 19.0377 16 19.0377C14.8795 19.0377 13.8136 18.9532 12.8523 18.8031C11.9727 18.6121 12.3955 17.8973 12.6273 17.589C12.6295 17.5863 12.6318 17.5836 12.6341 17.5808C12.6909 17.5072 12.7341 17.4581 12.7409 17.4499L12.7432 17.4471C12.8932 17.2643 13.0455 17.0843 13.2023 16.9042C13.7182 16.3067 14.2386 15.7501 14.7545 15.2372C14.9136 15.079 15.075 14.9235 15.2341 14.7734C15.2341 14.7734 15.2341 14.7734 15.2364 14.7734L15.2386 14.7707C15.2455 14.7625 15.2636 14.7461 15.2886 14.7243C15.4114 14.6152 15.7227 14.3642 16.0045 14.3669C16.2864 14.3669 16.5977 14.6152 16.7182 14.7243C16.725 14.7297 16.7295 14.7352 16.7341 14.7407C16.7386 14.7461 16.7432 14.7488 16.7477 14.7543C16.7545 14.7598 16.7591 14.7652 16.7636 14.7679C16.7659 14.7707 16.7682 14.7707 16.7682 14.7734C16.7705 14.7761 16.7705 14.7761 16.7705 14.7761C16.9295 14.9262 17.0886 15.079 17.25 15.2399C17.7659 15.7501 18.2886 16.3094 18.8023 16.9069C18.9591 17.087 19.1114 17.2698 19.2614 17.4499C19.2614 17.4499 19.2614 17.4499 19.2636 17.4526C19.2636 17.4526 19.2659 17.4553 19.2682 17.4581C19.2818 17.4744 19.3205 17.5181 19.3682 17.5808C19.5932 17.8782 20.0386 18.6094 19.1477 18.8031ZM22.55 17.78C22.1295 18.0092 21.6364 17.9437 21.2614 17.619L20.7659 17.188L17.425 14.285L17.4159 14.2768L17.3932 14.2577C17.2568 14.1432 16.8341 13.7994 16.5205 13.6493C16.5182 13.6493 16.5182 13.6521 16.5159 13.6521C16.4909 13.6384 16.4659 13.6248 16.4409 13.6139C16.4386 13.6139 16.4364 13.6111 16.4341 13.6111C16.3568 13.5757 16.275 13.5511 16.1886 13.5347C16.3159 13.5347 16.4409 13.5375 16.5659 13.5402C16.5932 13.5402 16.6205 13.5402 16.65 13.5429C18.7318 13.603 20.5818 13.9522 21.8773 14.4787C23.0705 14.9617 23.7932 15.5946 23.7932 16.2849C23.8 16.836 23.3409 17.3489 22.55 17.78Z" fill="white"/>
</svg>
