<svg width="72" height="28" viewBox="0 0 72 28" fill="none" xmlns="http://www.w3.org/2000/svg">
<path fill-rule="evenodd" clip-rule="evenodd" d="M19.9834 1.80039C18.3906 1.17115 16.7094 0.571409 14.9691 0.689391C13.5683 2.284 9.41147 7.63977 6.7703 11.0428C5.92657 12.1299 5.2375 13.0177 4.84236 13.5199C4.88651 12.094 4.9485 10.668 5.01052 9.24118V9.24116C5.08663 7.49035 5.1628 5.73819 5.20614 3.98305C2.73835 6.25421 1.1161 9.36106 0.781817 12.7039C0.329553 16.9906 2.06979 21.2182 5.19631 24.1285C5.17182 23.384 5.14977 22.6402 5.12773 21.8967C5.06129 19.655 4.99492 17.4161 4.86203 15.1717C6.6182 17.3695 8.34907 19.5842 10.0802 21.7993L10.0803 21.7994L10.0804 21.7996C11.5862 23.7263 13.0922 25.6533 14.6152 27.5696C16.4243 27.4418 17.9875 27.0879 19.6786 26.4488C18.0613 24.448 16.4759 22.4178 14.8906 20.3875L14.8905 20.3875C13.3051 18.3572 11.7197 16.3269 10.1024 14.3261C10.5218 13.8088 11.813 12.1618 13.3594 10.1892L13.3595 10.1892C15.6923 7.21358 18.6058 3.49724 19.9834 1.80039ZM39.7257 9.27255C39.5192 9.76414 39.4209 10.3049 39.4209 10.8751C39.4209 11.4552 39.5192 11.996 39.7257 12.4974C39.9322 12.9988 40.2074 13.4216 40.5516 13.7755C40.8957 14.1295 41.3086 14.4048 41.7904 14.6014C42.2721 14.798 42.7736 14.8964 43.3045 14.8964C43.8354 14.8964 44.3368 14.798 44.8186 14.6014C45.3003 14.4048 45.7133 14.1295 46.0574 13.7755C46.4015 13.4314 46.6768 12.9988 46.8833 12.4974C47.0897 11.996 47.188 11.4552 47.188 10.8751C47.188 10.3049 47.0897 9.77397 46.8833 9.27255C46.6768 8.77112 46.4015 8.34835 46.0574 8.00424C45.7133 7.66013 45.3003 7.38484 44.8186 7.1882C44.3368 6.99156 43.8354 6.89324 43.3045 6.89324C42.7736 6.89324 42.2721 6.99156 41.7904 7.1882C41.3086 7.38484 40.8957 7.66013 40.5516 8.00424C40.2074 8.34835 39.9322 8.77112 39.7257 9.27255ZM41.2791 13.0283C40.7285 12.4679 40.4532 11.7502 40.4532 10.8751C40.4532 10.0099 40.7285 9.30204 41.2791 8.75146C41.8297 8.20088 42.5081 7.92559 43.3045 7.92559C44.1008 7.92559 44.7792 8.20088 45.3298 8.75146C45.8804 9.30204 46.1557 10.0099 46.1557 10.8751C46.1557 11.7502 45.8804 12.4679 45.3298 13.0283C44.7792 13.5887 44.1008 13.8738 43.3045 13.8738C42.5081 13.8738 41.8297 13.5887 41.2791 13.0283ZM33.7774 7.09972V14.6997H34.8098V11.465H35.1637L38.2902 14.6997H39.6569L36.0781 10.9145L39.6569 7.09972H38.2902L35.1637 10.4032H34.8098V7.09972H33.7774ZM49.2232 14.6997H48.1909V7.09972H49.2232V14.6997ZM50.4424 7.09972V14.6997H51.4649V8.64331L55.4763 14.6997H56.6856V7.09972H55.6533V13.0971L51.6615 7.09972H50.4424ZM57.6786 10.8751C57.6786 10.3049 57.7769 9.76414 57.9834 9.27255C58.1899 8.77112 58.4651 8.34835 58.8093 8.00424C59.1534 7.66013 59.5663 7.38484 60.0481 7.1882C60.5298 6.99156 61.0313 6.89324 61.5622 6.89324C62.0931 6.89324 62.5945 6.99156 63.0763 7.1882C63.558 7.38484 63.971 7.66013 64.3151 8.00424C64.6592 8.34835 64.9345 8.77112 65.141 9.27255C65.3474 9.77397 65.4457 10.3049 65.4457 10.8751C65.4457 11.4552 65.3474 11.996 65.141 12.4974C64.9345 12.9988 64.6592 13.4314 64.3151 13.7755C63.971 14.1295 63.558 14.4048 63.0763 14.6014C62.5945 14.798 62.0931 14.8964 61.5622 14.8964C61.0313 14.8964 60.5298 14.798 60.0481 14.6014C59.5663 14.4048 59.1534 14.1295 58.8093 13.7755C58.4651 13.4216 58.1899 12.9988 57.9834 12.4974C57.7868 11.996 57.6786 11.4552 57.6786 10.8751ZM58.7109 10.8751C58.7109 11.7502 58.9862 12.4679 59.5368 13.0283C60.0874 13.5887 60.7658 13.8738 61.5622 13.8738C62.3586 13.8738 63.0369 13.5887 63.5875 13.0283C64.1381 12.4679 64.4134 11.7502 64.4134 10.8751C64.4134 10.0099 64.1381 9.30204 63.5875 8.75146C63.0369 8.20088 62.3586 7.92559 61.5622 7.92559C60.7658 7.92559 60.0874 8.20088 59.5368 8.75146C58.9862 9.30204 58.7109 10.0099 58.7109 10.8751ZM71.5513 8.11239V7.09972H65.6424V8.11239H68.0807V14.6997H69.113V8.11239H71.5513ZM34.0527 20.9724H33.3547L35.2325 16.499H36.0289L37.9068 20.9724H37.2186L36.7479 19.8221H34.5293L34.0527 20.9724ZM35.6455 17.1282L36.5145 19.2519H34.7656L35.6455 17.1282ZM40.0895 21.0511C40.6105 21.0511 41.053 20.8741 41.4069 20.53C41.7609 20.1859 41.9378 19.7533 41.9378 19.2224V16.499H41.3283V19.1634C41.3283 19.5665 41.2201 19.8811 40.9842 20.1072C40.7482 20.3334 40.4532 20.4415 40.0895 20.4415C39.7257 20.4415 39.4307 20.3334 39.1948 20.1072C38.9686 19.8811 38.8507 19.5665 38.8507 19.1634V16.499H38.2411V19.2224C38.2411 19.7533 38.4181 20.1859 38.772 20.53C39.1259 20.8741 39.5684 21.0511 40.0895 21.0511ZM45.9492 16.499V17.0889H44.5138V20.9724H43.9042V17.0889H42.4688V16.499H45.9492ZM46.3327 17.7771C46.2049 18.072 46.1459 18.3866 46.1459 18.7209C46.1459 19.0552 46.2049 19.3796 46.3327 19.6746C46.4605 19.9695 46.6178 20.2252 46.8243 20.4316C47.0307 20.6381 47.2667 20.7954 47.5518 20.9134C47.8271 21.0314 48.1221 21.0904 48.4367 21.0904C48.7415 21.0904 49.0364 21.0314 49.3216 20.9134C49.5968 20.8053 49.8426 20.6381 50.0491 20.4316C50.2556 20.2252 50.4227 19.9695 50.5407 19.6746C50.6685 19.3796 50.7275 19.065 50.7275 18.7209C50.7275 18.3866 50.6587 18.072 50.5407 17.7771C50.4129 17.4821 50.2556 17.2363 50.0491 17.0298C49.8426 16.8234 49.6067 16.6661 49.3216 16.5481C49.0463 16.4301 48.7513 16.3711 48.4367 16.3711C48.1319 16.3711 47.8369 16.4301 47.5518 16.5481C47.2765 16.6661 47.0307 16.8234 46.8243 17.0298C46.6178 17.2363 46.4507 17.4821 46.3327 17.7771ZM47.247 19.9892C46.9226 19.6648 46.7554 19.2322 46.7554 18.7209C46.7554 18.2097 46.9128 17.7967 47.247 17.4723C47.5715 17.1478 47.9648 16.9807 48.4367 16.9807C48.8988 16.9807 49.3019 17.1478 49.6263 17.4723C49.9508 17.7967 50.1179 18.2097 50.1179 18.7209C50.1179 19.2322 49.9508 19.6549 49.6263 19.9892C49.3019 20.3137 48.9086 20.4808 48.4367 20.4808C47.9746 20.4808 47.5715 20.3235 47.247 19.9892ZM23.3754 5.83142C23.6211 5.49714 23.8768 5.16285 24.1324 4.82857C26.4724 7.45367 27.8292 10.8358 27.7112 14.3753C27.6719 17.8066 26.2266 20.9528 23.9554 23.4894C23.2659 22.639 22.5884 21.7827 21.9135 20.9297C21.7222 20.688 21.5312 20.4465 21.3402 20.2055C24.27 16.7349 24.3487 11.7207 21.5466 8.15173C21.6793 7.98484 21.8124 7.81796 21.9457 7.65087C22.4249 7.05014 22.9061 6.4468 23.3754 5.83142Z" fill="white"/>
</svg>
