<svg width="9" height="11" viewBox="0 0 9 11" fill="none" xmlns="http://www.w3.org/2000/svg">
<path d="M8.49992 4.31708C8.49992 7.67799 4.86362 10.2175 4.70723 10.3246C4.58269 10.4094 4.41723 10.4094 4.29269 10.3246C4.13632 10.2174 0.5 7.67799 0.5 4.31708C0.5 2.91345 1.26226 1.61645 2.50002 0.914573C3.73778 0.212698 5.26221 0.212743 6.49995 0.914573C7.73769 1.6164 8.49992 2.91333 8.49992 4.31708ZM4.49999 5.74575C4.98225 5.74575 5.44452 5.55779 5.78543 5.2225C6.12679 4.88766 6.31815 4.43362 6.31815 3.9599C6.31815 3.48619 6.12679 3.03216 5.78543 2.69731C5.44453 2.36202 4.98227 2.17406 4.49999 2.17406C4.0177 2.17406 3.55546 2.36202 3.21454 2.69731C2.87318 3.03215 2.68183 3.48619 2.68183 3.9599C2.68183 4.43362 2.87318 4.88765 3.21454 5.2225C3.55545 5.55779 4.0177 5.74575 4.49999 5.74575Z" fill="white"/>
</svg>
