<svg width="63" height="58" viewBox="0 0 63 58" fill="none" xmlns="http://www.w3.org/2000/svg">
<path fill-rule="evenodd" clip-rule="evenodd" d="M45.1483 3.71387C49.2328 -0.370607 55.8534 -0.370607 59.9379 3.71387C64.0224 7.79835 64.0224 14.4189 59.9379 18.5034C55.8534 22.5879 49.2328 22.5879 45.1483 18.5034C41.0638 14.4189 41.0638 7.79835 45.1483 3.71387ZM52.2517 14.9996L57.355 10.8862C58.216 10.1921 58.3517 8.9307 57.6598 8.06976C56.9657 7.21104 55.7043 7.07311 54.8434 7.76721L51.3195 10.6081L50.5654 9.64482C49.8824 8.7772 48.6232 8.6237 47.7534 9.30445C46.8836 9.98742 46.7301 11.2466 47.413 12.1164L49.4197 14.6748C49.7489 15.0975 50.2361 15.3689 50.7678 15.4289C50.8435 15.4378 50.9191 15.4423 50.9947 15.4423C51.4508 15.4423 51.8935 15.2866 52.2517 14.9996ZM42.3188 21.3354C45.0484 24.0672 48.6813 25.5711 52.5433 25.5711C53.8893 25.5711 55.2018 25.3776 56.461 25.0261V40.1471C56.461 44.5275 52.877 48.1114 48.4967 48.1114H30.7884L19.6428 56.8765C18.3303 57.8999 16.4171 56.9655 16.4171 55.3193V48.1114H8.67523C4.2704 48.1114 0.710938 44.5297 0.710938 40.1471V15.1641C0.710938 10.7638 4.27707 7.19985 8.67523 7.19985H38.6325C37.2755 12.0674 38.4968 17.5134 42.3188 21.3354ZM14.466 33.8691H24.3836C25.4892 33.8691 26.3858 32.9726 26.3858 31.8669C26.3858 30.7612 25.4892 29.8647 24.3836 29.8647H14.466C13.3604 29.8647 12.4638 30.7612 12.4638 31.8669C12.4638 32.9726 13.3604 33.8691 14.466 33.8691ZM14.4593 25.4421H39.1308C40.2365 25.4421 41.133 24.5455 41.133 23.4399C41.133 22.3342 40.2365 21.4377 39.1308 21.4377H14.4593C13.3537 21.4377 12.4572 22.3342 12.4572 23.4399C12.4572 24.5455 13.3537 25.4421 14.4593 25.4421Z" fill="#CA0100"/>
</svg>
