<svg aria-hidden="true" style="position: absolute; width: 0; height: 0; overflow: hidden;" version="1.1" xmlns="http://www.w3.org/2000/svg" xmlns:xlink="http://www.w3.org/1999/xlink">
<defs>
<symbol id="icon-arrow-down" viewBox="0 0 60 32">
<path fill="none" stroke="#8a989f" style="stroke: var(--color1, #8a989f)" stroke-linejoin="miter" stroke-linecap="round" stroke-miterlimit="4" stroke-width="6" d="M5.089 3.553l24.042 24.042c0.781 0.781 2.047 0.781 2.828 0l24.042-24.042"></path>
</symbol>
<symbol id="icon-calendar" viewBox="0 0 34 32">
<path fill="#fff" style="fill: var(--color2, #fff)" d="M8.393 0c-0.421 0-0.762 0.341-0.762 0.762v6.476c0 0.421 0.341 0.762 0.762 0.762s0.762-0.341 0.762-0.762v-6.476c0-0.421-0.341-0.762-0.762-0.762zM24.393 0c-0.421 0-0.762 0.341-0.762 0.762v6.476c0 0.421 0.341 0.762 0.762 0.762s0.762-0.341 0.762-0.762v-6.476c0-0.421-0.341-0.762-0.762-0.762zM3.060 2.286c-1.694 0-3.060 1.366-3.060 3.060v6.845h32.762v-6.845c0-1.694-1.366-3.060-3.059-3.060h-3.786v3.25c0.467 0.418 0.762 1.026 0.762 1.702 0 1.262-1.023 2.286-2.286 2.286s-2.286-1.023-2.286-2.286c0-0.677 0.295-1.284 0.762-1.702v-3.25h-12.964v3.238c0.475 0.419 0.774 1.032 0.774 1.714 0 1.262-1.023 2.286-2.286 2.286s-2.286-1.023-2.286-2.286c0-0.671 0.29-1.272 0.75-1.69v-3.262h-3.798zM0 13.714v15.226c0 1.694 1.366 3.059 3.060 3.059h26.643c1.694 0 3.059-1.366 3.059-3.059v-15.226l-32.762 0z"></path>
</symbol>
<symbol id="icon-chery-logo" viewBox="0 0 340 32">
<path fill="#fff" style="fill: var(--color2, #fff)" d="M53.365 1.221c9.174 0.456 17.471 1.8 24.063 3.775 9.443 2.816 15.38 6.918 15.38 11.476 0 3.857-4.266 7.386-11.301 10.097-2.852 1.099-6.171 2.057-9.84 2.852-2.992 0.654-6.217 1.192-9.63 1.589-4.85 0.573-10.074 0.888-15.508 0.888-5.446 0-10.658-0.316-15.508-0.888-3.413-0.409-6.638-0.947-9.63-1.589-3.67-0.795-6.989-1.753-9.84-2.852-7.035-2.699-11.301-6.241-11.301-10.097 0-4.558 5.937-8.66 15.38-11.476 6.591-1.975 14.889-3.319 24.063-3.775 2.15-0.105 4.336-0.164 6.568-0.164h0.538c2.232 0 4.417 0.058 6.568 0.164zM12.836 21.532c2.174 0.982 4.698 0.701 6.626-0.689l2.536-1.858 17.121-12.388c0 0 0.035-0.035 0.105-0.082l0.117-0.082c0.713-0.491 2.887-1.963 4.488-2.606 0.006 0 0.009 0.003 0.012 0.006s0.006 0.006 0.012 0.006l0-0c0.129-0.058 0.257-0.117 0.397-0.164h0.012c0.409-0.152 0.83-0.257 1.262-0.327-0.655 0-1.309 0.012-1.952 0.023-0.078 0-0.152 0.003-0.225 0.006-0.070 0.003-0.139 0.006-0.208 0.006-10.705 0.257-20.218 1.765-26.879 4.008-6.135 2.069-9.852 4.78-9.852 7.737 0 2.361 2.361 4.558 6.428 6.404zM46.529 26.92c5.75 0 11.231-0.362 16.186-1.005 4.581-0.83 2.291-3.962 1.134-5.236-0.198-0.217-0.366-0.381-0.46-0.473-0.022-0.022-0.041-0.040-0.054-0.053l-0.023-0.023-0.012-0.012c-0.771-0.771-1.554-1.554-2.361-2.326-2.641-2.559-5.329-4.955-7.982-7.14-0.83-0.69-1.648-1.344-2.466-1.987l-0.012-0.012c0-0.007-0.004-0.010-0.011-0.014-0.004-0.002-0.008-0.005-0.013-0.010-0.013-0.007-0.026-0.017-0.041-0.029-0.012-0.009-0.025-0.020-0.040-0.030-0.012-0.012-0.023-0.020-0.035-0.029s-0.023-0.018-0.035-0.029v-0c-0.023-0.023-0.047-0.047-0.082-0.070-0.619-0.467-2.221-1.531-3.67-1.531-1.449-0.012-3.050 1.063-3.681 1.531-0.129 0.094-0.222 0.164-0.257 0.199l-0.012 0.012h-0.012c-0.818 0.643-1.648 1.309-2.466 1.987-2.653 2.197-5.329 4.581-7.982 7.14-0.806 0.771-1.589 1.543-2.361 2.326l-0.012 0.012c-0.005 0.005-0.015 0.014-0.028 0.027-0.075 0.073-0.273 0.265-0.522 0.534l-0.035 0.035c-1.192 1.321-3.366 4.382 1.157 5.201 4.944 0.643 10.424 1.005 16.186 1.005zM73.583 20.843c1.928 1.391 4.464 1.671 6.626 0.689 4.067-1.846 6.428-4.044 6.393-6.404 0-2.957-3.716-5.668-9.852-7.737-6.661-2.256-16.174-3.751-26.879-4.008-0.152-0.012-0.292-0.012-0.432-0.012h-0c-0.643-0.012-1.285-0.023-1.94-0.023 0.444 0.070 0.865 0.175 1.262 0.327 0.006 0 0.012 0.003 0.017 0.006s0.012 0.006 0.018 0.006c0.129 0.047 0.257 0.105 0.385 0.164 0.006 0 0.009-0.003 0.012-0.006s0.006-0.006 0.012-0.006c1.613 0.643 3.787 2.115 4.488 2.606l0.117 0.082 0.047 0.035c0.035 0.035 0.058 0.047 0.058 0.047l19.669 14.234zM168.91 14.006h28.13v-9.875h5.937v24.682h-5.937v-9.875h-28.13v9.875h-5.925v-24.682h5.925v9.875zM286.582 4.131c4.103 0 7.422 3.319 7.422 7.409 0 3.541-2.489 6.498-5.809 7.211l5.809 10.050h-6.427l-5.703-9.875h-21.925v9.875h-5.937v-14.807h32.571c1.369 0 2.479-1.11 2.479-2.466s-1.11-2.466-2.479-2.466h-29.612l-2.969-4.932h32.581zM123.415 16.472c0-4.090 3.319-7.409 7.421-7.409h23.677l2.968-4.932h-27.639c-0.841 0-1.671 0.082-2.478 0.245-3.015 0.608-5.633 2.314-7.421 4.686-1.554 2.057-2.478 4.628-2.478 7.409 0 0.841 0.082 1.671 0.245 2.466 0.374 1.823 1.145 3.506 2.221 4.932 1.788 2.372 4.394 4.079 7.421 4.686 0.795 0.164 1.625 0.245 2.478 0.245h24.671l2.968-4.932h-26.645c-3.226 0-5.972-2.057-6.989-4.932-0.269-0.771-0.421-1.601-0.421-2.466zM317.13 14.953l14.082-10.822h8.391l-19.271 14.807v9.875h-6.72v-9.875l-19.271-14.807h8.697l14.092 10.822zM214.441 11.482c0.035-1.332 1.122-2.407 2.466-2.407h28.632l2.968-4.932h-32.581c-4.090 0-7.421 3.319-7.421 7.409v17.261h37.035l2.968-4.932h-34.066v-4.943h25.161l2.968-4.932h-28.129v-2.524z"></path>
</symbol>
<symbol id="icon-facebook" viewBox="0 0 19 32">
<path fill="#fff" style="fill: var(--color2, #fff)" d="M14.045 5.636h2.864v-4.844c-1.387-0.144-2.78-0.215-4.174-0.213-4.143 0-6.977 2.529-6.977 7.16v3.991h-4.677v5.423h4.677v13.893h5.606v-13.893h4.661l0.701-5.423h-5.362v-3.458c0-1.599 0.427-2.635 2.681-2.635z"></path>
</symbol>
<symbol id="icon-instagram" viewBox="0 0 32 32">
<path fill="#fff" style="fill: var(--color2, #fff)" d="M0.955 8.99v13.643c0 4.638 3.774 8.412 8.412 8.412h13.643c4.638 0 8.412-3.773 8.412-8.412v-13.643c0-4.638-3.773-8.412-8.412-8.412h-13.643c-4.638 0-8.412 3.774-8.412 8.412zM10.139 15.812c0 3.336 2.714 6.049 6.049 6.049s6.049-2.713 6.049-6.049c0-3.335-2.714-6.049-6.049-6.049s-6.049 2.713-6.049 6.049zM8.178 15.812c0-4.416 3.593-8.009 8.009-8.009s8.009 3.593 8.009 8.009c0 4.417-3.593 8.010-8.009 8.010s-8.009-3.593-8.009-8.010zM25.945 3.809c1.161 0 2.102 0.941 2.102 2.102s-0.941 2.102-2.102 2.102c-1.161 0-2.102-0.941-2.102-2.102s0.941-2.102 2.102-2.102z"></path>
</symbol>
<symbol id="icon-koinot" viewBox="0 0 80 32">
<path fill="#fff" style="fill: var(--color2, #fff)" d="M21.99 1.729c-1.546 1.904-4.815 6.074-7.433 9.413l-0 0c-1.735 2.213-3.184 4.061-3.655 4.642 1.815 2.245 3.594 4.523 5.373 6.801v0c1.779 2.278 3.558 4.556 5.372 6.801-1.897 0.717-3.651 1.114-5.681 1.258-1.709-2.15-3.399-4.313-5.089-6.475l-0-0c-1.942-2.486-3.885-4.971-5.855-7.437 0.149 2.518 0.224 5.031 0.298 7.546v0c0.025 0.834 0.049 1.669 0.077 2.504-3.508-3.265-5.461-8.009-4.953-12.819 0.375-3.751 2.195-7.237 4.964-9.785-0.049 1.969-0.134 3.935-0.22 5.9-0.070 1.601-0.139 3.201-0.189 4.801 0.443-0.564 1.216-1.56 2.163-2.779l0-0.001c2.964-3.818 7.628-9.828 9.2-11.617 1.953-0.132 3.839 0.541 5.626 1.247zM44.142 10.114c-0.232 0.552-0.342 1.158-0.342 1.798 0 0.651 0.11 1.258 0.342 1.82s0.541 1.037 0.927 1.434c0.386 0.397 0.849 0.706 1.39 0.927s1.103 0.331 1.699 0.331c0.596 0 1.158-0.11 1.699-0.331s1.004-0.529 1.39-0.927c0.386-0.386 0.695-0.871 0.927-1.434s0.342-1.169 0.342-1.82c0-0.64-0.11-1.236-0.342-1.798s-0.541-1.037-0.927-1.423c-0.386-0.386-0.849-0.695-1.39-0.916s-1.103-0.331-1.699-0.331c-0.596 0-1.158 0.11-1.699 0.331s-1.004 0.53-1.39 0.916c-0.386 0.386-0.695 0.861-0.927 1.423zM45.885 14.328c-0.618-0.629-0.927-1.434-0.927-2.416 0-0.971 0.309-1.765 0.927-2.383s1.379-0.927 2.273-0.927c0.894 0 1.655 0.309 2.273 0.927s0.927 1.412 0.927 2.383c0 0.982-0.309 1.787-0.927 2.416s-1.379 0.949-2.273 0.949c-0.894 0-1.655-0.32-2.273-0.949zM37.467 7.676h1.158v3.707h0.397l3.508-3.707h1.533l-4.016 4.28 4.016 4.247h-1.533l-3.508-3.63h-0.397v3.63h-1.158v-8.528zM54.799 16.203v-8.528h-1.158v8.528h1.158zM56.167 7.676h1.368l4.479 6.73v-6.73h1.158v8.528h-1.357l-4.501-6.796v6.796h-1.147v-8.528zM64.286 11.912c0-0.64 0.11-1.247 0.342-1.798 0.232-0.563 0.54-1.037 0.927-1.423s0.849-0.695 1.39-0.916c0.541-0.221 1.103-0.331 1.699-0.331s1.158 0.11 1.699 0.331c0.54 0.221 1.004 0.53 1.39 0.916s0.695 0.861 0.927 1.423 0.342 1.158 0.342 1.798c0 0.651-0.11 1.258-0.342 1.82s-0.54 1.048-0.927 1.434c-0.386 0.397-0.849 0.706-1.39 0.927s-1.103 0.331-1.699 0.331c-0.596 0-1.158-0.11-1.699-0.331s-1.004-0.529-1.39-0.927c-0.386-0.397-0.695-0.871-0.927-1.434-0.221-0.563-0.342-1.169-0.342-1.82zM65.445 11.912c0 0.982 0.309 1.787 0.927 2.416s1.379 0.949 2.273 0.949c0.894 0 1.655-0.32 2.273-0.949s0.927-1.434 0.927-2.416c0-0.971-0.309-1.765-0.927-2.383s-1.379-0.927-2.273-0.927c-0.894 0-1.655 0.309-2.273 0.927s-0.927 1.412-0.927 2.383zM79.853 8.812h-2.736v7.392h-1.158v-7.392h-2.736v-1.136h6.63v1.136zM37.776 23.242l0.535-1.291h2.489l0.528 1.291h0.772l-2.107-5.020h-0.894l-2.107 5.020h0.783zM39.563 18.928l0.975 2.383h-1.962l0.987-2.383zM44.55 23.33c0.585 0 1.081-0.199 1.478-0.585s0.596-0.871 0.596-1.467v-3.056h-0.684v2.99c0 0.452-0.121 0.805-0.386 1.059s-0.596 0.375-1.004 0.375-0.739-0.121-1.004-0.375c-0.254-0.254-0.386-0.607-0.386-1.059v-2.99h-0.684v3.056c0 0.596 0.199 1.081 0.596 1.467s0.894 0.585 1.478 0.585zM51.125 18.222v0.662h-1.611v4.358h-0.684v-4.358h-1.611v-0.662h3.905zM51.555 19.656c-0.143 0.331-0.21 0.684-0.21 1.059s0.066 0.739 0.21 1.070c0.143 0.331 0.32 0.618 0.552 0.85s0.496 0.408 0.816 0.541c0.309 0.132 0.64 0.199 0.993 0.199 0.342 0 0.673-0.066 0.993-0.199 0.309-0.121 0.585-0.309 0.816-0.541s0.419-0.519 0.552-0.85c0.143-0.331 0.21-0.684 0.21-1.070 0-0.375-0.077-0.728-0.21-1.059-0.143-0.331-0.32-0.607-0.552-0.838s-0.496-0.408-0.816-0.541c-0.309-0.133-0.64-0.199-0.993-0.199-0.342 0-0.673 0.066-0.993 0.199-0.309 0.132-0.585 0.309-0.816 0.541s-0.419 0.508-0.552 0.838zM52.581 22.138c-0.364-0.364-0.552-0.849-0.552-1.423s0.177-1.037 0.552-1.401c0.364-0.364 0.805-0.552 1.335-0.552 0.519 0 0.971 0.188 1.335 0.552s0.552 0.827 0.552 1.401c0 0.574-0.188 1.048-0.552 1.423-0.364 0.364-0.805 0.552-1.335 0.552-0.519 0-0.971-0.177-1.335-0.552zM25.796 6.252c0.276-0.375 0.563-0.75 0.849-1.125 2.626 2.946 4.148 6.741 4.016 10.712-0.044 3.85-1.666 7.38-4.214 10.227-0.774-0.954-1.534-1.915-2.291-2.872-0.215-0.271-0.429-0.542-0.643-0.813 3.288-3.894 3.376-9.521 0.232-13.525 0.149-0.187 0.298-0.374 0.448-0.562 0.538-0.674 1.078-1.351 1.604-2.042z"></path>
</symbol>
<symbol id="icon-point" viewBox="0 0 32 32">
<path fill="#65a6ff" style="fill: var(--color3, #65a6ff)" d="M16 10.39c2.18 0 3.948 1.768 3.948 3.948s-1.768 3.948-3.948 3.948c-2.18 0-3.948-1.768-3.948-3.948s1.768-3.948 3.948-3.948z"></path>
<path fill="none" stroke="#fff" style="stroke: var(--color2, #fff)" stroke-linejoin="miter" stroke-linecap="butt" stroke-miterlimit="4" stroke-width="1.6623" d="M16 9.558c2.639 0 4.779 2.14 4.779 4.779s-2.14 4.779-4.779 4.779c-2.639 0-4.779-2.14-4.779-4.779s2.14-4.779 4.779-4.779z"></path>
</symbol>
<symbol id="icon-tel" viewBox="0 0 30 32">
<path fill="#fff" style="fill: var(--color2, #fff)" d="M23.634 19.497c1.846 1.026 3.693 2.052 5.539 3.078 0.795 0.441 1.143 1.377 0.83 2.231-1.588 4.339-6.24 6.629-10.617 5.032-8.962-3.271-15.606-9.915-18.877-18.877-1.597-4.377 0.693-9.029 5.032-10.617 0.854-0.313 1.79 0.036 2.232 0.83 1.025 1.846 2.051 3.693 3.077 5.539 0.481 0.866 0.368 1.894-0.29 2.634-0.862 0.97-1.724 1.94-2.586 2.909 1.84 4.481 5.637 8.278 10.118 10.118 0.969-0.862 1.939-1.724 2.909-2.586 0.741-0.658 1.768-0.771 2.633-0.29z"></path>
</symbol>
<symbol id="icon-telegram" viewBox="0 0 38 32">
<path fill="#fff" style="fill: var(--color2, #fff)" d="M2.537 14.692c9.712-4.231 16.188-7.021 19.428-8.369 9.252-3.848 11.174-4.516 12.427-4.538 0.276-0.005 0.892 0.063 1.291 0.387 0.337 0.274 0.43 0.643 0.474 0.902s0.1 0.85 0.056 1.311c-0.501 5.268-2.671 18.051-3.774 23.951-0.467 2.496-1.387 3.334-2.277 3.415-1.934 0.178-3.404-1.278-5.277-2.507-2.932-1.922-4.588-3.119-7.434-4.994-3.289-2.168-1.157-3.359 0.717-5.306 0.491-0.51 9.015-8.263 9.179-8.966 0.021-0.088 0.040-0.416-0.155-0.589s-0.482-0.114-0.69-0.067c-0.294 0.067-4.978 3.163-14.052 9.288-1.33 0.913-2.534 1.358-3.613 1.334-1.19-0.026-3.478-0.673-5.178-1.226-2.086-0.678-3.744-1.037-3.6-2.188 0.075-0.6 0.901-1.213 2.478-1.84z"></path>
</symbol>
<symbol id="icon-chat" viewBox="0 0 32 32">
<path fill="none" stroke="#fafafa" style="stroke: var(--color4, #fafafa)" stroke-linejoin="round" stroke-linecap="round" stroke-miterlimit="4" stroke-width="2.6667" d="M8.126 14.972c-0.083-0.534-0.126-1.081-0.126-1.638 0-5.891 4.807-10.667 10.737-10.667s10.737 4.776 10.737 10.667c0 1.331-0.245 2.605-0.693 3.779-0.093 0.244-0.14 0.366-0.161 0.461s-0.029 0.161-0.031 0.257c-0.002 0.097 0.011 0.205 0.037 0.42l0.537 4.36c0.058 0.472 0.087 0.708 0.009 0.88-0.069 0.15-0.191 0.27-0.343 0.335-0.173 0.075-0.409 0.040-0.879-0.029l-4.247-0.623c-0.222-0.033-0.333-0.049-0.434-0.048-0.1 0.001-0.169 0.008-0.267 0.028s-0.225 0.068-0.477 0.163c-1.178 0.441-2.454 0.683-3.787 0.683-0.558 0-1.105-0.042-1.64-0.124M10.175 29.333c3.953 0 7.158-3.283 7.158-7.333s-3.205-7.333-7.158-7.333c-3.953 0-7.158 3.283-7.158 7.333 0 0.814 0.13 1.597 0.369 2.329 0.101 0.309 0.152 0.464 0.168 0.57 0.017 0.11 0.020 0.172 0.014 0.284-0.006 0.107-0.033 0.227-0.086 0.469l-0.815 3.682 3.993-0.545c0.218-0.030 0.327-0.045 0.422-0.044 0.1 0.001 0.153 0.006 0.252 0.026 0.093 0.019 0.232 0.067 0.51 0.165 0.731 0.258 1.516 0.398 2.332 0.398z"></path>
</symbol>
</defs>
</svg>
