<svg aria-hidden="true" style="position: absolute; width: 0; height: 0; overflow: hidden;" version="1.1" xmlns="http://www.w3.org/2000/svg" xmlns:xlink="http://www.w3.org/1999/xlink">
<defs>
<symbol id="icon-calendar" viewBox="0 0 34 32">
<path fill="#fff" style="fill: var(--color1, #fff)" d="M8.393 0c-0.421 0-0.762 0.341-0.762 0.762v6.476c0 0.421 0.341 0.762 0.762 0.762s0.762-0.341 0.762-0.762v-6.476c0-0.421-0.341-0.762-0.762-0.762zM24.393 0c-0.421 0-0.762 0.341-0.762 0.762v6.476c0 0.421 0.341 0.762 0.762 0.762s0.762-0.341 0.762-0.762v-6.476c0-0.421-0.341-0.762-0.762-0.762zM3.060 2.286c-1.694 0-3.060 1.366-3.060 3.060v6.845h32.762v-6.845c0-1.694-1.366-3.060-3.059-3.060h-3.786v3.25c0.467 0.418 0.762 1.026 0.762 1.702 0 1.262-1.023 2.286-2.286 2.286s-2.286-1.023-2.286-2.286c0-0.677 0.295-1.284 0.762-1.702v-3.25h-12.964v3.238c0.475 0.419 0.774 1.032 0.774 1.714 0 1.262-1.023 2.286-2.286 2.286s-2.286-1.023-2.286-2.286c0-0.671 0.29-1.272 0.75-1.69v-3.262h-3.798zM0 13.714v15.226c0 1.694 1.366 3.059 3.060 3.059h26.643c1.694 0 3.059-1.366 3.059-3.059v-15.226l-32.762 0z"></path>
</symbol>
<symbol id="icon-chery-logo" viewBox="0 0 337 32">
<path fill="#fff" style="fill: var(--color1, #fff)" d="M52.653 0.165c9.094 0.452 17.319 1.784 23.853 3.742 9.361 2.792 15.246 6.858 15.246 11.376 0 3.823-4.229 7.322-11.202 10.009-2.827 1.089-6.117 2.039-9.754 2.827-2.966 0.649-6.163 1.182-9.546 1.576-4.808 0.568-9.986 0.88-15.373 0.88-5.398 0-10.565-0.313-15.373-0.88-3.383-0.405-6.58-0.938-9.546-1.576-3.638-0.788-6.928-1.738-9.754-2.827-6.974-2.676-11.202-6.186-11.202-10.009 0-4.518 5.885-8.584 15.245-11.376 6.534-1.958 14.759-3.29 23.853-3.742 2.132-0.104 4.298-0.162 6.511-0.162h0.533c2.213 0 4.379 0.058 6.511 0.162zM12.477 20.299c2.155 0.973 4.657 0.695 6.569-0.684l2.514-1.842 16.972-12.28c0 0 0.035-0.035 0.104-0.081l0.116-0.081c0.707-0.487 2.861-1.946 4.449-2.583 0.006 0 0.009 0.003 0.011 0.006s0.006 0.006 0.012 0.006l0-0c0.127-0.058 0.255-0.116 0.394-0.162h0.012c0.405-0.151 0.823-0.255 1.251-0.324-0.649 0-1.297 0.012-1.935 0.023-0.077 0-0.151 0.003-0.223 0.006-0.070 0.003-0.138 0.006-0.206 0.006-10.612 0.255-20.042 1.749-26.645 3.974-6.082 2.050-9.766 4.738-9.766 7.669 0 2.34 2.34 4.518 6.372 6.348zM45.875 25.639c5.7 0 11.133-0.359 16.045-0.996 4.541-0.822 2.271-3.927 1.124-5.19-0.196-0.215-0.363-0.377-0.456-0.469-0.022-0.022-0.040-0.039-0.054-0.053l-0.035-0.035c-0.765-0.765-1.541-1.541-2.34-2.305-2.618-2.537-5.283-4.912-7.912-7.078-0.823-0.684-1.633-1.332-2.444-1.969l-0.012-0.012c0-0.007-0.004-0.010-0.011-0.014-0.004-0.002-0.008-0.005-0.013-0.010-0.013-0.006-0.026-0.017-0.041-0.028-0.012-0.009-0.025-0.019-0.040-0.029-0.011-0.012-0.023-0.020-0.035-0.029s-0.023-0.017-0.035-0.029v-0c-0.023-0.023-0.046-0.046-0.081-0.069-0.614-0.463-2.201-1.518-3.637-1.518-1.437-0.012-3.024 1.054-3.649 1.518-0.127 0.093-0.22 0.162-0.255 0.197l-0.011 0.012h-0.012c-0.811 0.637-1.633 1.297-2.444 1.969-2.63 2.178-5.283 4.541-7.912 7.078-0.799 0.765-1.576 1.529-2.34 2.305l-0.011 0.012c-0.005 0.005-0.015 0.014-0.028 0.027-0.075 0.072-0.27 0.263-0.517 0.529l-0.035 0.035c-1.182 1.309-3.336 4.344 1.147 5.155 4.9 0.637 10.334 0.996 16.045 0.996zM72.694 19.615c1.912 1.379 4.425 1.657 6.569 0.684 4.031-1.83 6.372-4.008 6.337-6.348 0-2.931-3.684-5.619-9.766-7.669-6.603-2.236-16.033-3.719-26.645-3.974-0.151-0.012-0.29-0.012-0.429-0.012h-0c-0.637-0.012-1.274-0.023-1.923-0.023 0.44 0.070 0.857 0.174 1.251 0.324 0.006 0 0.012 0.003 0.017 0.006s0.011 0.006 0.017 0.006c0.127 0.046 0.255 0.104 0.382 0.162 0.006 0 0.009-0.003 0.011-0.006s0.006-0.006 0.012-0.006c1.599 0.637 3.753 2.097 4.449 2.583l0.116 0.081 0.046 0.035c0.035 0.035 0.058 0.046 0.058 0.046l19.497 14.11zM122.091 15.283c0-4.055 3.29-7.345 7.356-7.345h23.471l2.942-4.889h-27.398c-0.834 0-1.657 0.081-2.456 0.243-2.989 0.602-5.584 2.294-7.356 4.645-1.541 2.039-2.456 4.588-2.456 7.345 0 0.834 0.081 1.657 0.243 2.444 0.371 1.807 1.135 3.475 2.201 4.889 1.772 2.352 4.356 4.043 7.356 4.645 0.788 0.162 1.61 0.243 2.456 0.243h24.455l2.942-4.889h-26.413c-3.197 0-5.92-2.039-6.928-4.889-0.266-0.765-0.417-1.587-0.417-2.444zM167.191 12.838h27.885v-9.789h5.884v24.467h-5.884v-9.789h-27.885v9.789h-5.874v-24.467h5.874v9.789zM283.836 3.049c4.068 0 7.358 3.29 7.358 7.345 0 3.51-2.468 6.441-5.758 7.148l5.758 9.963h-6.372l-5.655-9.789h-21.732v9.789h-5.886v-14.678h32.286c1.357 0 2.456-1.101 2.456-2.444s-1.099-2.444-2.456-2.444h-29.355l-2.942-4.889h32.297zM314.12 13.777l13.96-10.727h8.318l-19.104 14.678v9.789h-6.66v-9.789l-19.104-14.678h8.619l13.971 10.727zM212.324 10.336c0.036-1.321 1.112-2.386 2.445-2.386h28.382l2.942-4.889h-32.297c-4.055 0-7.356 3.29-7.356 7.345v17.111h36.712l2.942-4.889h-33.769v-4.9h24.943l2.942-4.889h-27.885v-2.502z"></path>
</symbol>
<symbol id="icon-koinot" viewBox="0 0 82 32">
<path fill="#fff" style="fill: var(--color1, #fff)" d="M22.838 2.058c-1.574 1.939-4.904 6.186-7.57 9.587h-0c-1.767 2.254-3.243 4.137-3.722 4.728 1.848 2.287 3.66 4.607 5.472 6.927h0c1.812 2.32 3.624 4.641 5.472 6.927-1.933 0.73-3.719 1.135-5.787 1.281-1.741-2.19-3.462-4.392-5.183-6.594l-0-0c-1.978-2.532-3.957-5.063-5.964-7.574 0.152 2.565 0.228 5.124 0.304 7.686 0.025 0.85 0.050 1.7 0.078 2.551-3.573-3.326-5.562-8.158-5.045-13.057 0.382-3.82 2.236-7.371 5.056-9.967-0.050 2.006-0.137 4.008-0.224 6.009v0c-0.071 1.631-0.142 3.26-0.192 4.89 0.452-0.574 1.239-1.589 2.203-2.831 3.018-3.889 7.769-10.010 9.37-11.832 1.989-0.135 3.91 0.551 5.731 1.27zM45.401 10.597c-0.236 0.562-0.348 1.18-0.348 1.832 0 0.663 0.112 1.281 0.348 1.854s0.55 1.056 0.944 1.461c0.393 0.405 0.865 0.719 1.416 0.944s1.124 0.337 1.73 0.337 1.18-0.112 1.73-0.337c0.55-0.225 1.023-0.539 1.416-0.944 0.393-0.393 0.708-0.888 0.944-1.461s0.348-1.191 0.348-1.854c0-0.652-0.112-1.258-0.348-1.832s-0.551-1.056-0.944-1.45-0.865-0.708-1.416-0.933c-0.551-0.225-1.124-0.337-1.73-0.337s-1.18 0.112-1.73 0.337c-0.551 0.225-1.023 0.539-1.416 0.933s-0.708 0.876-0.944 1.45zM47.176 14.889c-0.629-0.64-0.944-1.461-0.944-2.461 0-0.989 0.315-1.798 0.944-2.427s1.405-0.944 2.315-0.944c0.91 0 1.685 0.315 2.315 0.944s0.944 1.438 0.944 2.427c0 1-0.315 1.82-0.944 2.461s-1.405 0.966-2.315 0.966c-0.91 0-1.685-0.326-2.315-0.966zM38.603 8.114h1.18v3.775h0.404l3.573-3.775h1.562l-4.090 4.36 4.090 4.326h-1.562l-3.573-3.697h-0.404v3.697h-1.18v-8.686zM56.255 16.8v-8.686h-1.18v8.686h1.18zM57.648 8.114h1.393l4.562 6.854v-6.854h1.18v8.686h-1.382l-4.584-6.922v6.922h-1.169v-8.686zM65.918 12.429c0-0.652 0.112-1.27 0.348-1.832 0.236-0.573 0.55-1.056 0.944-1.45s0.865-0.708 1.416-0.933c0.55-0.225 1.124-0.337 1.73-0.337s1.18 0.112 1.73 0.337c0.55 0.225 1.022 0.539 1.416 0.933s0.708 0.876 0.944 1.45c0.236 0.573 0.348 1.18 0.348 1.832 0 0.663-0.112 1.281-0.348 1.854s-0.551 1.067-0.944 1.461c-0.393 0.405-0.865 0.719-1.416 0.944s-1.124 0.337-1.73 0.337-1.18-0.112-1.73-0.337c-0.551-0.225-1.022-0.539-1.416-0.944s-0.708-0.888-0.944-1.461c-0.225-0.573-0.348-1.191-0.348-1.854zM67.098 12.429c0 1 0.315 1.82 0.944 2.461s1.405 0.966 2.315 0.966c0.91 0 1.685-0.326 2.315-0.966s0.944-1.461 0.944-2.461c0-0.989-0.315-1.798-0.944-2.427s-1.404-0.944-2.315-0.944c-0.91 0-1.686 0.315-2.315 0.944s-0.944 1.438-0.944 2.427zM81.773 9.271h-2.787v7.528h-1.18v-7.528h-2.787v-1.157h6.753v1.157zM38.917 23.968l0.545-1.315h2.536l0.538 1.315h0.786l-2.146-5.112h-0.91l-2.146 5.112h0.798zM40.738 19.575l0.993 2.427h-1.999l1.006-2.427zM45.817 24.058c0.595 0 1.101-0.202 1.506-0.596s0.607-0.888 0.607-1.494v-3.112h-0.697v3.045c0 0.461-0.124 0.82-0.393 1.079s-0.607 0.382-1.023 0.382c-0.416 0-0.753-0.124-1.023-0.382-0.258-0.258-0.393-0.618-0.393-1.079v-3.045h-0.697v3.112c0 0.607 0.202 1.101 0.607 1.494s0.91 0.596 1.506 0.596zM52.513 18.856v0.674h-1.64v4.438h-0.697v-4.438h-1.64v-0.674h3.978zM52.952 20.317c-0.146 0.337-0.214 0.697-0.214 1.079s0.067 0.753 0.214 1.090c0.146 0.337 0.326 0.629 0.562 0.865s0.506 0.416 0.831 0.551c0.315 0.135 0.652 0.202 1.011 0.202 0.348 0 0.685-0.067 1.011-0.202 0.315-0.124 0.595-0.315 0.831-0.551s0.427-0.528 0.562-0.865c0.146-0.337 0.214-0.697 0.214-1.090 0-0.382-0.079-0.742-0.214-1.079-0.146-0.337-0.326-0.618-0.562-0.854s-0.506-0.416-0.831-0.55c-0.315-0.135-0.652-0.202-1.011-0.202-0.348 0-0.685 0.067-1.011 0.202-0.315 0.135-0.596 0.315-0.831 0.55s-0.427 0.517-0.562 0.854zM53.997 22.845c-0.371-0.371-0.562-0.865-0.562-1.45s0.18-1.056 0.562-1.427c0.371-0.371 0.82-0.562 1.36-0.562 0.528 0 0.989 0.191 1.36 0.562s0.562 0.843 0.562 1.427c0 0.584-0.191 1.067-0.562 1.45-0.371 0.371-0.82 0.562-1.36 0.562-0.528 0-0.989-0.18-1.36-0.562zM26.715 6.664c0.281-0.382 0.573-0.764 0.865-1.146 2.674 3 4.225 6.865 4.090 10.911-0.045 3.922-1.697 7.517-4.292 10.416-0.788-0.972-1.562-1.95-2.334-2.925-0.219-0.276-0.437-0.552-0.655-0.828 3.348-3.966 3.438-9.697 0.236-13.776 0.152-0.191 0.304-0.381 0.456-0.572 0.548-0.687 1.098-1.376 1.634-2.079z"></path>
</symbol>
<symbol id="icon-locator" viewBox="0 0 26 32">
<path fill="#fff" style="fill: var(--color1, #fff)" d="M24.727 12.14c0 9.777-10.578 17.165-11.033 17.476-0.362 0.247-0.844 0.247-1.206 0-0.455-0.312-11.033-7.699-11.033-17.476 0-4.083 2.217-7.856 5.818-9.898s8.035-2.042 11.636 0c3.601 2.042 5.818 5.815 5.818 9.898zM13.091 16.296c1.403 0 2.748-0.547 3.739-1.522 0.993-0.974 1.55-2.295 1.55-3.673s-0.557-2.699-1.55-3.673c-0.992-0.975-2.336-1.522-3.739-1.522s-2.748 0.547-3.739 1.522c-0.993 0.974-1.55 2.295-1.55 3.673s0.557 2.699 1.55 3.673c0.992 0.975 2.336 1.522 3.739 1.522z"></path>
</symbol>
<symbol id="icon-point" viewBox="0 0 32 32">
<path fill="#65a6ff" style="fill: var(--color2, #65a6ff)" d="M16 10.39c2.18 0 3.948 1.768 3.948 3.948s-1.768 3.948-3.948 3.948c-2.18 0-3.948-1.768-3.948-3.948s1.768-3.948 3.948-3.948z"></path>
<path fill="none" stroke="#fff" style="stroke: var(--color1, #fff)" stroke-linejoin="miter" stroke-linecap="butt" stroke-miterlimit="4" stroke-width="1.6623" d="M16 9.558c2.639 0 4.779 2.14 4.779 4.779s-2.14 4.779-4.779 4.779c-2.639 0-4.779-2.14-4.779-4.779s2.14-4.779 4.779-4.779z"></path>
</symbol>
<symbol id="icon-sprite" viewBox="0 0 32 32">
<path fill="none" stroke="#fff" style="stroke: var(--color1, #fff)" stroke-linejoin="miter" stroke-linecap="butt" stroke-miterlimit="4" stroke-width="1.6623" d="M16 9.558c2.639 0 4.779 2.14 4.779 4.779s-2.14 4.779-4.779 4.779c-2.639 0-4.779-2.14-4.779-4.779s2.14-4.779 4.779-4.779z"></path>
</symbol>
<symbol id="icon-tel" viewBox="0 0 30 32">
<path fill="#fff" style="fill: var(--color1, #fff)" d="M23.634 19.497c1.846 1.026 3.693 2.052 5.539 3.078 0.795 0.441 1.143 1.377 0.83 2.231-1.588 4.339-6.24 6.629-10.617 5.032-8.962-3.271-15.606-9.915-18.877-18.877-1.597-4.377 0.693-9.029 5.032-10.617 0.854-0.313 1.79 0.036 2.232 0.83 1.025 1.846 2.051 3.693 3.077 5.539 0.481 0.866 0.368 1.894-0.29 2.634-0.862 0.97-1.724 1.94-2.586 2.909 1.84 4.481 5.637 8.278 10.118 10.118 0.969-0.862 1.939-1.724 2.909-2.586 0.741-0.658 1.768-0.771 2.633-0.29z"></path>
</symbol>
<symbol id="icon-instagram" viewBox="0 0 18 18">
<path fill="#fff" d="M449.436 180.352h91.645v-155.013c-44.376-4.616-88.959-6.893-133.567-6.825-132.59 0-223.258 80.919-223.258 229.108v127.715h-149.651v173.537h149.651v444.567h179.386v-444.567h149.164l22.423-173.537h-171.587v-110.654c0-51.184 13.649-84.331 85.793-84.331z"></path>
</symbol>
<symbol id="icon-message" width="18" height="18" viewBox="0 0 18 18">
<path fill="none" stroke="#fafafa" stroke-linejoin="round" stroke-linecap="round" stroke-miterlimit="4" stroke-width="85.3333" d="M260.026 479.095c-2.652-17.092-4.028-34.598-4.028-52.429 0-188.513 153.826-341.333 343.579-341.333 189.751 0 343.578 152.82 343.578 341.333 0 42.586-7.846 83.349-22.187 120.939-2.978 7.808-4.471 11.712-5.146 14.758-0.67 3.021-0.93 5.146-1.003 8.239-0.073 3.119 0.35 6.558 1.199 13.431l17.173 139.529c1.86 15.104 2.79 22.656 0.277 28.147-2.202 4.813-6.11 8.631-10.97 10.722-5.547 2.385-13.077 1.28-28.134-0.926l-135.902-19.921c-7.1-1.041-10.645-1.562-13.879-1.54-3.196 0.017-5.406 0.252-8.538 0.909-3.162 0.666-7.202 2.18-15.279 5.205-37.687 14.118-78.532 21.841-121.19 21.841-17.843 0-35.366-1.353-52.476-3.955M325.614 938.667c126.503 0 229.053-105.062 229.053-234.667s-102.549-234.667-229.053-234.667c-126.502 0-229.053 105.062-229.053 234.667 0 26.052 4.144 51.11 11.793 74.526 3.233 9.899 4.85 14.848 5.381 18.227 0.554 3.533 0.651 5.513 0.445 9.079-0.198 3.418-1.053 7.279-2.762 15.002l-26.084 117.833 127.778-17.451c6.975-0.951 10.462-1.429 13.507-1.408 3.206 0.021 4.908 0.196 8.053 0.823 2.986 0.593 7.426 2.159 16.305 5.295 23.395 8.256 48.505 12.74 74.637 12.74z"></path>
</symbol>

</defs>
</svg>
