<!-- Generated by IcoMoon.io -->
<svg version="1.1" xmlns="http://www.w3.org/2000/svg" width="1024" height="1024" viewBox="0 0 1024 1024">
<g id="icomoon-ignore">
</g>
<path fill="#fff" d="M30.553 287.695v436.575c0 148.421 120.754 269.172 269.177 269.172h436.575c148.426 0 269.172-120.751 269.172-269.172v-436.575c0-148.427-120.746-269.182-269.172-269.182h-436.575c-148.423 0-269.177 120.755-269.177 269.182zM324.449 505.976c0 106.737 86.837 193.567 193.567 193.567 106.732 0 193.567-86.83 193.567-193.567 0-106.73-86.835-193.562-193.567-193.562-106.73 0-193.567 86.832-193.567 193.562zM261.712 505.976c0-141.325 114.973-256.298 256.303-256.298 141.332 0 256.301 114.973 256.301 256.298 0 141.332-114.968 256.306-256.301 256.306-141.33 0-256.303-114.974-256.303-256.306zM830.227 121.904c37.155 0 67.271 30.116 67.271 67.27s-30.116 67.275-67.271 67.275c-37.155 0-67.277-30.121-67.277-67.275s30.122-67.27 67.277-67.27z"></path>
</svg>
