<svg width="22" height="21" viewBox="0 0 22 21" fill="none" xmlns="http://www.w3.org/2000/svg">
<path d="M5.50784 0C5.23166 0 5.00784 0.223858 5.00784 0.500001V4.75001C5.00784 5.02615 5.23166 5.25001 5.50784 5.25001C5.78399 5.25001 6.00784 5.02615 6.00784 4.75001V0.500001C6.00784 0.223858 5.78399 0 5.50784 0ZM16.0079 0C15.7317 0 15.5079 0.223858 15.5079 0.500001V4.75001C15.5079 5.02615 15.7317 5.25001 16.0079 5.25001C16.284 5.25001 16.5079 5.02615 16.5079 4.75001V0.500001C16.5079 0.223858 16.284 0 16.0079 0ZM2.00783 1.5C0.896377 1.5 0 2.39637 0 3.50782V8.00002H21.5V3.50782C21.5 2.39637 20.6037 1.5 19.4922 1.5H18H17.0079V3.63282C17.3145 3.90747 17.5079 4.30595 17.5079 4.75001C17.5079 5.57844 16.8363 6.25001 16.0079 6.25001C15.1794 6.25001 14.5079 5.57844 14.5079 4.75001C14.5079 4.30595 14.7012 3.90747 15.0079 3.63282V1.5H6.50001V3.62501C6.81144 3.89986 7.00784 4.30199 7.00784 4.75001C7.00784 5.57844 6.33626 6.25001 5.50784 6.25001C4.67938 6.25001 4.00783 5.57844 4.00783 4.75001C4.00783 4.30991 4.19811 3.91503 4.50001 3.64063V1.5H2.00783ZM0 9.00002V18.9922C0 20.1036 0.896352 21 2.00783 21H19.4922C20.6037 21 21.5 20.1036 21.5 18.9922V9L0 9.00002Z" fill="white"/>
</svg>
