<svg width="138" height="13" viewBox="0 0 138 13" fill="none" xmlns="http://www.w3.org/2000/svg">
<path fill-rule="evenodd" clip-rule="evenodd" d="M21.6797 0.496063C25.4066 0.681222 28.7775 1.2272 31.4551 2.02956C35.2913 3.17375 37.7031 4.84018 37.7031 6.69177C37.7031 8.2585 35.9702 9.69229 33.1121 10.7937C31.9536 11.24 30.6053 11.6293 29.1145 11.9522C27.8991 12.218 26.5888 12.4364 25.2025 12.5979C23.2322 12.8305 21.11 12.9587 18.9023 12.9587C16.6899 12.9587 14.5724 12.8305 12.6022 12.5979C11.2158 12.4317 9.90549 12.2133 8.69009 11.9522C7.19932 11.6293 5.85099 11.24 4.69256 10.7937C1.83446 9.69704 0.101562 8.2585 0.101562 6.69177C0.101562 4.84018 2.51338 3.17375 6.34949 2.02956C9.02717 1.2272 12.398 0.681222 16.1249 0.496063C16.9985 0.453334 17.8863 0.429596 18.7931 0.429596H19.0115C19.9183 0.429596 20.8061 0.453334 21.6797 0.496063ZM5.2148 8.7475C6.09786 9.14631 7.12336 9.03236 7.90672 8.46739L8.93697 7.71251L15.8923 2.67999C15.8923 2.67999 15.9065 2.66575 15.935 2.64675L15.9825 2.61352C16.2721 2.41412 17.1552 1.81591 17.8056 1.55479C17.808 1.55479 17.8092 1.55598 17.8104 1.55717C17.8115 1.55835 17.8127 1.55954 17.8151 1.55954L17.8152 1.55952C17.8674 1.53579 17.9196 1.51206 17.9765 1.49307H17.9813C18.1474 1.43135 18.3184 1.38862 18.494 1.36014C18.2281 1.36014 17.9623 1.36489 17.7012 1.36963C17.6697 1.36963 17.6394 1.37087 17.6098 1.37208C17.5813 1.37324 17.5534 1.37438 17.5255 1.37438C13.1766 1.47883 9.31203 2.09128 6.60586 3.00283C4.11334 3.84317 2.60358 4.94463 2.60358 6.14578C2.60358 7.10481 3.56261 7.99737 5.2148 8.7475ZM18.9023 10.9362C21.2382 10.9362 23.4648 10.789 25.4778 10.5279C27.3389 10.1908 26.4084 8.91842 25.9384 8.40093C25.8579 8.31278 25.7898 8.24629 25.7515 8.20894C25.7424 8.20003 25.735 8.19277 25.7295 8.18728L25.72 8.17778L25.7152 8.17304C25.4019 7.85969 25.0838 7.5416 24.7562 7.22825C23.6832 6.18851 22.5912 5.21524 21.5135 4.32743C21.1764 4.04732 20.8441 3.78145 20.5118 3.52032L20.507 3.51558C20.507 3.51264 20.5052 3.51152 20.5027 3.50997C20.5012 3.50902 20.4993 3.5079 20.4975 3.50608C20.4922 3.50342 20.4869 3.49925 20.4807 3.49443C20.4759 3.49067 20.4705 3.48651 20.4643 3.48234C20.4595 3.4776 20.4548 3.47403 20.4501 3.47047C20.4453 3.46691 20.4406 3.46335 20.4358 3.45861L20.4358 3.45859C20.4263 3.4491 20.4168 3.43961 20.4026 3.43012C20.151 3.24021 19.5005 2.80818 18.9118 2.80818C18.3231 2.80343 17.6727 3.24021 17.4163 3.43012C17.3641 3.4681 17.3261 3.49659 17.3118 3.51083L17.3071 3.51558H17.3024C16.97 3.7767 16.6329 4.04732 16.3006 4.32268C15.2229 5.21524 14.1357 6.18376 13.0579 7.2235C12.7304 7.53685 12.4123 7.8502 12.0989 8.16829L12.0942 8.17304C12.092 8.17516 12.0882 8.17888 12.0829 8.18409C12.0523 8.21377 11.972 8.29189 11.871 8.40093L11.8568 8.41517C11.3725 8.95165 10.4895 10.1955 12.3268 10.5279C14.3351 10.789 16.5617 10.9362 18.9023 10.9362ZM29.8932 8.46739C30.6765 9.03236 31.7068 9.14631 32.5851 8.7475C34.2373 7.99737 35.1963 7.10481 35.1821 6.14578C35.1821 4.94463 33.6723 3.84317 31.1798 3.00283C28.4736 2.08653 24.609 1.47883 20.2602 1.37438C20.1984 1.36963 20.1415 1.36963 20.0845 1.36963L20.0844 1.36963C19.8233 1.36488 19.5622 1.36014 19.2964 1.36014C19.4768 1.38862 19.6477 1.43135 19.8091 1.49307C19.8115 1.49307 19.8139 1.49426 19.8162 1.49545C19.8186 1.49663 19.821 1.49782 19.8234 1.49782C19.8756 1.51681 19.9278 1.54055 19.98 1.56429C19.9824 1.56429 19.9836 1.5631 19.9848 1.56191C19.986 1.56073 19.9872 1.55954 19.9895 1.55954C20.6447 1.82066 21.5278 2.41887 21.8126 2.61827L21.8601 2.6515L21.8791 2.66575C21.8933 2.67999 21.9028 2.68474 21.9028 2.68474L28.8582 7.71726L29.8932 8.46739ZM68.6196 5.68999H80.0473V1.67821H82.4591V5.68999V7.69351V11.7053H80.0473V7.69351H68.6196V11.7053H66.2126V7.69351V5.68999V1.67821H68.6196V5.68999ZM116.424 1.67821C118.091 1.67821 119.439 3.02655 119.439 4.68823C119.439 6.12678 118.428 7.32794 117.079 7.61754L119.439 11.7005H116.828L114.511 7.68876H105.604V11.7005H103.192V7.68876V5.68524H113.585H116.424C116.98 5.68524 117.431 5.23421 117.431 4.68349C117.431 4.13276 116.98 3.68173 116.424 3.68173H113.585H104.394L103.188 1.67821H116.424ZM50.1372 6.69176C50.1372 5.03007 51.4855 3.68174 53.1519 3.68174H56.7649H57.7714H62.7707L63.9766 1.67822H57.7714H52.7484C52.4066 1.67822 52.0695 1.71146 51.7419 1.77792C50.517 2.0248 49.4535 2.71796 48.7271 3.68174C48.0957 4.51733 47.7206 5.56181 47.7206 6.69176C47.7206 7.03359 47.7538 7.37067 47.8203 7.69351C47.9722 8.43415 48.2856 9.11781 48.7224 9.69703C49.4488 10.6608 50.5075 11.354 51.7371 11.6008C52.06 11.6673 52.3971 11.7005 52.7436 11.7005H57.7667H62.766L63.9719 9.69703H57.7667H56.7602H53.1472C51.8368 9.69703 50.7211 8.86144 50.3081 7.69351C50.1989 7.38017 50.1372 7.04308 50.1372 6.69176ZM128.834 6.07455L134.555 1.67821H137.964L130.135 7.69351V11.7053H127.405V7.69351L119.576 1.67821H123.109L128.834 6.07455ZM87.1168 4.66453C87.1311 4.12329 87.5726 3.68651 88.1186 3.68651H90.5589H99.7504L100.956 1.68299H87.7198C86.0581 1.68299 84.705 3.03133 84.705 4.69301V5.69002V7.69354V8.69529V11.7053H87.7957H99.7504L100.956 9.7018H90.5636H88.1233H87.1168V8.72378V8.67156V7.69354H87.7198H88.1186H90.5589H97.3385L98.5444 5.69002H90.5589H88.1186H87.1168V4.712V4.66453Z" fill="white"/>
</svg>
