<svg width="19" height="19" viewBox="0 0 19 19" fill="none" xmlns="http://www.w3.org/2000/svg">
<path fill-rule="evenodd" clip-rule="evenodd" d="M0.566895 5.33809C0.566895 2.58407 2.80745 0.343506 5.56139 0.343506H13.6619C16.4159 0.343506 18.6563 2.58407 18.6563 5.33809V13.4386C18.6563 16.1925 16.4159 18.433 13.6619 18.433H5.56139C2.80745 18.433 0.566895 16.1925 0.566895 13.4386V5.33809ZM6.02005 9.38823C6.02005 11.3687 7.63128 12.9798 9.61162 12.9798C11.592 12.9798 13.2032 11.3687 13.2032 9.38823C13.2032 7.40789 11.592 5.79675 9.61162 5.79675C7.63128 5.79675 6.02005 7.40789 6.02005 9.38823ZM4.85599 9.38823C4.85599 6.76599 6.98928 4.6327 9.61162 4.6327C12.234 4.6327 14.3672 6.76599 14.3672 9.38823C14.3672 12.0106 12.234 14.1439 9.61162 14.1439C6.98928 14.1439 4.85599 12.0106 4.85599 9.38823ZM15.4046 2.26189C16.094 2.26189 16.6528 2.82068 16.6528 3.51006C16.6528 4.19945 16.094 4.75833 15.4046 4.75833C14.7152 4.75833 14.1563 4.19945 14.1563 3.51006C14.1563 2.82068 14.7152 2.26189 15.4046 2.26189Z" fill="white"/>
</svg>
