<svg width="55" height="22" viewBox="0 0 55 22" fill="none" xmlns="http://www.w3.org/2000/svg">
<path fill-rule="evenodd" clip-rule="evenodd" d="M15.1178 1.18887C13.8891 0.703458 12.5921 0.2408 11.2496 0.331815C10.169 1.56194 6.96232 5.69352 4.92483 8.31868L4.92483 8.31869L4.92454 8.31906C4.27379 9.15751 3.74234 9.84225 3.43756 10.2297C3.47161 9.12963 3.51943 8.02961 3.56728 6.9289C3.626 5.57827 3.68475 4.22661 3.71818 2.87264C1.81446 4.62467 0.563011 7.02139 0.305136 9.60014C-0.0437532 12.907 1.29871 16.1684 3.7106 18.4134C3.69171 17.8391 3.6747 17.2654 3.6577 16.6918L3.6577 16.6917C3.60644 14.9624 3.55524 13.2353 3.45273 11.5039C4.80749 13.1993 6.14273 14.9078 7.47817 16.6166L7.47824 16.6167C8.63988 18.1031 9.80168 19.5896 10.9766 21.068C12.3722 20.9694 13.5781 20.6963 14.8826 20.2033C13.635 18.6599 12.412 17.0937 11.189 15.5275L11.189 15.5275C9.96595 13.9612 8.74295 12.395 7.49529 10.8516C7.81881 10.4525 8.81487 9.18197 10.0078 7.66032L10.0079 7.6602C11.8075 5.36475 14.0551 2.49787 15.1178 1.18887ZM30.3474 6.95311C30.1881 7.33234 30.1122 7.74949 30.1122 8.1894C30.1122 8.63688 30.1881 9.05404 30.3474 9.44085C30.5066 9.82766 30.719 10.1538 30.9845 10.4268C31.2499 10.6999 31.5685 10.9123 31.9401 11.0639C32.3118 11.2156 32.6986 11.2915 33.1081 11.2915C33.5177 11.2915 33.9045 11.2156 34.2762 11.0639C34.6478 10.9123 34.9664 10.6999 35.2318 10.4268C35.4973 10.1614 35.7096 9.82766 35.8689 9.44085C36.0282 9.05404 36.104 8.63688 36.104 8.1894C36.104 7.74949 36.0282 7.33993 35.8689 6.95311C35.7096 6.5663 35.4973 6.24017 35.2318 5.97471C34.9664 5.70925 34.6478 5.49688 34.2762 5.34519C33.9045 5.1935 33.5177 5.11765 33.1081 5.11765C32.6986 5.11765 32.3118 5.1935 31.9401 5.34519C31.5685 5.49688 31.2499 5.70925 30.9845 5.97471C30.719 6.24017 30.5066 6.5663 30.3474 6.95311ZM31.5457 9.85041C31.121 9.41809 30.9086 8.86442 30.9086 8.1894C30.9086 7.52196 31.121 6.97587 31.5457 6.55113C31.9705 6.1264 32.4938 5.91403 33.1081 5.91403C33.7225 5.91403 34.2458 6.1264 34.6706 6.55113C35.0953 6.97587 35.3077 7.52196 35.3077 8.1894C35.3077 8.86442 35.0953 9.41809 34.6706 9.85041C34.2458 10.2827 33.7225 10.5027 33.1081 10.5027C32.4938 10.5027 31.9705 10.2827 31.5457 9.85041ZM25.7586 5.27692V11.1398H26.555V8.64446H26.8281L29.24 11.1398H30.2942L27.5334 8.21972L30.2942 5.27692H29.24L26.8281 7.82532H26.555V5.27692H25.7586ZM37.6741 11.1398H36.8777V5.27692H37.6741V11.1398ZM38.6145 5.27692V11.1398H39.4033V6.46769L42.4978 11.1398H43.4307V5.27692H42.6343V9.90349L39.555 5.27692H38.6145ZM44.1968 8.1894C44.1968 7.74949 44.2727 7.33234 44.432 6.95311C44.5912 6.5663 44.8036 6.24017 45.0691 5.97471C45.3345 5.70925 45.6531 5.49688 46.0247 5.34519C46.3964 5.1935 46.7832 5.11765 47.1927 5.11765C47.6023 5.11765 47.9891 5.1935 48.3608 5.34519C48.7324 5.49688 49.051 5.70925 49.3164 5.97471C49.5819 6.24017 49.7942 6.5663 49.9535 6.95311C50.1128 7.33993 50.1886 7.74949 50.1886 8.1894C50.1886 8.63688 50.1128 9.05404 49.9535 9.44085C49.7942 9.82766 49.5819 10.1614 49.3164 10.4268C49.051 10.6999 48.7324 10.9123 48.3608 11.0639C47.9891 11.2156 47.6023 11.2915 47.1927 11.2915C46.7832 11.2915 46.3964 11.2156 46.0247 11.0639C45.6531 10.9123 45.3345 10.6999 45.0691 10.4268C44.8036 10.1538 44.5912 9.82766 44.432 9.44085C44.2803 9.05404 44.1968 8.63688 44.1968 8.1894ZM44.9932 8.1894C44.9932 8.86442 45.2056 9.41809 45.6303 9.85041C46.0551 10.2827 46.5784 10.5027 47.1927 10.5027C47.8071 10.5027 48.3304 10.2827 48.7552 9.85041C49.1799 9.41809 49.3923 8.86442 49.3923 8.1894C49.3923 7.52196 49.1799 6.97587 48.7552 6.55113C48.3304 6.1264 47.8071 5.91403 47.1927 5.91403C46.5784 5.91403 46.0551 6.1264 45.6303 6.55113C45.2056 6.97587 44.9932 7.52196 44.9932 8.1894ZM54.8987 6.05812V5.27692H50.3404V6.05812H52.2214V11.1398H53.0177V6.05812H54.8987ZM25.971 15.9787H25.4324L26.8811 12.5278H27.4954L28.9441 15.9787H28.4132L28.0501 15.0914H26.3386L25.971 15.9787ZM27.1996 13.0132L27.87 14.6514H26.5209L27.1996 13.0132ZM30.6281 16.0394C31.0301 16.0394 31.3714 15.9029 31.6444 15.6374C31.9175 15.372 32.054 15.0383 32.054 14.6287V12.5278H31.5838V14.5832C31.5838 14.8942 31.5003 15.1369 31.3183 15.3113C31.1363 15.4858 30.9087 15.5692 30.6281 15.5692C30.3475 15.5692 30.1199 15.4858 29.9379 15.3113C29.7635 15.1369 29.6724 14.8942 29.6724 14.5832V12.5278H29.2022V14.6287C29.2022 15.0383 29.3387 15.372 29.6118 15.6374C29.8848 15.9029 30.2261 16.0394 30.6281 16.0394ZM35.1484 12.5278V12.9828H34.041V15.9787H33.5708V12.9828H32.4634V12.5278H35.1484ZM35.4443 13.5137C35.3457 13.7413 35.3002 13.984 35.3002 14.2418C35.3002 14.4997 35.3457 14.75 35.4443 14.9775C35.5429 15.2051 35.6642 15.4023 35.8235 15.5616C35.9828 15.7208 36.1648 15.8422 36.3848 15.9332C36.5971 16.0242 36.8247 16.0697 37.0674 16.0697C37.3025 16.0697 37.53 16.0242 37.75 15.9332C37.9624 15.8498 38.152 15.7208 38.3112 15.5616C38.4705 15.4023 38.5995 15.2051 38.6905 14.9775C38.7891 14.75 38.8346 14.5073 38.8346 14.2418C38.8346 13.984 38.7815 13.7413 38.6905 13.5137C38.5919 13.2862 38.4705 13.0966 38.3112 12.9373C38.152 12.778 37.9699 12.6567 37.75 12.5657C37.5376 12.4746 37.3101 12.4291 37.0674 12.4291C36.8323 12.4291 36.6047 12.4746 36.3848 12.5657C36.1724 12.6567 35.9828 12.778 35.8235 12.9373C35.6642 13.0966 35.5353 13.2862 35.4443 13.5137ZM36.1497 15.2202C35.8994 14.97 35.7704 14.6362 35.7704 14.2418C35.7704 13.8474 35.8918 13.5289 36.1497 13.2786C36.3999 13.0283 36.7033 12.8994 37.0674 12.8994C37.4239 12.8994 37.7348 13.0283 37.9851 13.2786C38.2354 13.5289 38.3643 13.8474 38.3643 14.2418C38.3643 14.6362 38.2354 14.9624 37.9851 15.2202C37.7348 15.4705 37.4314 15.5995 37.0674 15.5995C36.7109 15.5995 36.3999 15.4781 36.1497 15.2202ZM17.7344 4.29853C17.924 4.04066 18.1212 3.78278 18.3184 3.52491C20.1235 5.54998 21.1702 8.15907 21.0792 10.8895C21.0488 13.5365 19.9339 15.9636 18.1819 17.9204C17.65 17.2645 17.1274 16.6039 16.6068 15.946C16.4592 15.7594 16.3118 15.5731 16.1644 15.3871C18.4246 12.7098 18.4853 8.84168 16.3237 6.08849C16.426 5.95977 16.5287 5.83104 16.6315 5.70217C17.0011 5.23873 17.3724 4.77328 17.7344 4.29853Z" fill="white"/>
</svg>
