<svg width="19" height="16" viewBox="0 0 19 16" fill="none" xmlns="http://www.w3.org/2000/svg">
<path fill-rule="evenodd" clip-rule="evenodd" d="M1.2685 7.3462C6.12434 5.23055 9.36226 3.83585 10.9824 3.16193C15.6083 1.23793 16.5695 0.903732 17.1959 0.892697C17.3337 0.890255 17.6418 0.924354 17.8414 1.08634C18.0099 1.2231 18.0562 1.40779 18.0785 1.5374C18.1006 1.66702 18.1283 1.96242 18.1063 2.19315C17.8556 4.82697 16.771 11.2186 16.2192 14.1686C15.9857 15.4168 15.5259 15.8354 15.0808 15.8763C14.1136 15.9654 13.379 15.2371 12.4421 14.623C10.9761 13.662 10.1479 13.0637 8.72488 12.126C7.08028 11.0422 8.14638 10.4465 9.0836 9.47316C9.32889 9.21837 13.5909 5.3418 13.6733 4.99014C13.6837 4.94618 13.6932 4.7822 13.5958 4.69564C13.4984 4.60908 13.3547 4.63866 13.251 4.66227C13.1039 4.69564 10.7619 6.24356 6.22501 9.30619C5.56022 9.76259 4.95812 9.985 4.4186 9.97342C3.82382 9.96058 2.67984 9.63714 1.82936 9.36064C0.786236 9.02156 -0.0428945 8.84229 0.0292825 8.26641C0.0669085 7.96649 0.479981 7.65969 1.2685 7.3462Z" fill="white"/>
</svg>
